# xmcd CD database file
#
# Track frame offsets:
#	150
#	4660
#	29742
#	46010
#	51617
#	70315
#	83875
#	105145
#	123380
#	143487
#	166792
#	188377
#	213907
#	236370
#	265962
#
# Disc length: 4440 seconds
#
# Revision: 0
# Processed by: cddbd v1.5PL3 Copyright (c) Steve Scherf et al.
# Submitted via: CDex 1.51
#
DISCID=bd11560f
DTITLE=椿 - CAMELLIA
DYEAR=2004
DGENRE=JPop
TTITLE0=Intro
TTITLE1=川の流れのように
TTITLE2=FREE REIN
TTITLE3=ROOM
TTITLE4=白日夢
TTITLE5=宛先のない手紙
TTITLE6=FALLING
TTITLE7=promise
TTITLE8=FRIENDS feat. KOHEI JAPAN
TTITLE9=In or out -album version-
TTITLE10=SHOWCASE -GOTA remix-
TTITLE11=川の流れのように -HIROSHI WATANABE remix-
TTITLE12=彼方へ・・・ -album version-
TTITLE13=明日に架ける橋
TTITLE14=CCCD
EXTD=YEAR: 2004
EXTT0=
EXTT1=
EXTT2=
EXTT3=
EXTT4=
EXTT5=
EXTT6=
EXTT7=
EXTT8=
EXTT9=
EXTT10=
EXTT11=
EXTT12=
EXTT13=
EXTT14=
PLAYORDER=
